<svg width="500" height="500" viewBox="0 0 500 500" fill="none" xmlns="http://www.w3.org/2000/svg">
<path fill-rule="evenodd" clip-rule="evenodd" d="M442.2 339.7L257.1 446.6L72.1 339.7V126L257.1 19.2L442.2 126V339.7Z" fill="white"/>
<g clip-path="url(#clip0_5_6)">
<path d="M180 232.999C180 275.525 214.473 309.998 256.999 309.998C299.525 309.998 334 275.524 334 232.999C334 190.473 299.525 156 256.999 156C214.473 156 180 190.473 180 232.999Z" fill="#0C0C4F" stroke="#EC796B" stroke-width="4"/>
<path fill-rule="evenodd" clip-rule="evenodd" d="M222.154 214.388L224.104 208.363C224.501 207.137 225.468 206.184 226.698 205.808L232.752 203.946C233.59 203.69 233.597 202.508 232.766 202.238L226.739 200.288C225.515 199.892 224.562 198.925 224.184 197.695L222.324 191.64C222.068 190.805 220.886 190.796 220.616 191.629L218.666 197.654C218.27 198.877 217.303 199.831 216.073 200.209L210.018 202.068C209.18 202.327 209.171 203.507 210.005 203.776L216.032 205.726C217.255 206.123 218.209 207.092 218.587 208.322L220.446 214.374C220.702 215.212 221.885 215.221 222.154 214.388Z" fill="#FAFAFA"/>
<path fill-rule="evenodd" clip-rule="evenodd" d="M317.848 210.881C315.352 208.09 311.457 206.519 307.67 205.874C303.853 205.255 299.85 205.313 296.082 205.982C288.457 207.272 281.53 210.429 275.488 214.324C272.351 216.236 269.675 218.447 266.903 220.7C265.567 221.839 264.35 223.052 263.081 224.248L259.616 227.696C255.851 231.632 252.14 235.216 248.549 238.188C244.944 241.145 241.573 243.392 238.251 244.96C234.932 246.537 231.379 247.464 226.75 247.613C222.16 247.775 216.731 246.946 210.923 245.579C205.084 244.218 198.952 242.278 192.1 240.609C194.491 247.241 198.091 253.103 202.714 258.461C207.39 263.726 213.23 268.524 220.731 271.68C228.125 274.906 237.416 276.064 246.103 274.317C254.814 272.64 262.457 268.61 268.636 263.948C274.83 259.239 279.842 253.875 284.067 248.298C285.233 246.757 285.85 245.895 286.694 244.691L289.027 241.235C290.648 239.098 292.124 236.664 293.728 234.546C296.874 230.111 299.976 225.681 303.58 221.6C305.394 219.53 307.307 217.549 309.565 215.647C310.691 214.718 311.908 213.809 313.256 212.99C314.624 212.107 316.069 211.415 317.848 210.881Z" fill="#EC796B"/>
<path fill-rule="evenodd" clip-rule="evenodd" d="M317.848 210.881C315.167 204.115 310.182 198.419 303.491 194.217C296.841 190.06 287.605 187.939 278.452 189.747C273.931 190.622 269.55 192.305 265.706 194.547C261.879 196.78 258.45 199.469 255.481 202.352C253.999 203.799 252.654 205.308 251.318 206.826L247.854 211.242L242.504 218.351C235.684 227.498 228.339 238.217 216.286 241.393C204.454 244.511 199.322 241.749 192.1 240.609C193.421 244.018 195.057 247.328 197.274 250.241C199.45 253.212 202.02 256.003 205.216 258.396C206.831 259.545 208.536 260.679 210.43 261.641C212.315 262.57 214.347 263.388 216.517 264.003C220.833 265.186 225.692 265.601 230.397 264.964C235.104 264.336 239.603 262.845 243.536 260.864C247.497 258.901 250.948 256.511 254.03 253.989C260.155 248.902 264.92 243.282 268.944 237.6C270.969 234.759 272.806 231.865 274.506 228.97L276.506 225.524C277.118 224.516 277.736 223.502 278.364 222.558C280.899 218.765 283.378 215.724 286.389 213.441C289.358 211.1 293.493 209.369 299.018 208.967C304.52 208.561 310.872 209.312 317.848 210.881Z" fill="#FAFAFA"/>
<path fill-rule="evenodd" clip-rule="evenodd" d="M288.081 267.097C288.081 272.067 292.112 276.097 297.081 276.097C302.051 276.097 306.076 272.067 306.076 267.097C306.076 262.128 302.051 258.097 297.081 258.097C292.112 258.097 288.081 262.128 288.081 267.097Z" fill="#EC796B"/>
</g>
<defs>
<clipPath id="clip0_5_6">
<rect width="158" height="158" fill="white" transform="translate(178 154)"/>
</clipPath>
</defs>
</svg>
